<?xml version="1.0" encoding="utf-8"?>
<!-- Generator: Adobe Illustrator 25.2.1, SVG Export Plug-In . SVG Version: 6.00 Build 0)  -->
<svg version="1.1" id="Ebene_1" xmlns="http://www.w3.org/2000/svg" xmlns:xlink="http://www.w3.org/1999/xlink" x="0px" y="0px"
	 viewBox="0 0 150 100" style="enable-background:new 0 0 150 100;" xml:space="preserve">
<style type="text/css">
	.st0{clip-path:url(#SVGID_1_);fill:#FFFFFF;}
</style>
<g>
	<defs>
		<rect id="SVGID_3_" x="24.3" y="0.5" width="101.4" height="99"/>
	</defs>
	<clipPath id="SVGID_1_">
		<use xlink:href="#SVGID_3_"  style="overflow:visible;"/>
	</clipPath>
	<path class="st0" d="M101.6,66.4c-0.8,1.1-0.9,1.7-0.1,2.6c1.6,1.6,3.2,3.2,4.8,4.8c0.6,0.6,1.5,0.8,2.2,0.3
		c1.2-0.9,2.3-1.9,3.5-2.9C108.4,69.5,105,67.9,101.6,66.4 M94.6,9.9c-0.5-0.4-0.9-0.9-1.4-1c-0.6-0.2-1.5-0.3-1.9,0
		c-2,1.3-3.9,2.7-5.9,4.1c-0.8,0.6-0.9,1.7-0.3,2.5c0.9,1,2,2,3.1,3.1C90.4,15.6,92.5,12.8,94.6,9.9 M105.7,12.8
		c-2.8,3.8-5.5,7.4-8.1,11c-0.7,0.9-0.6,1.7,0.2,2.6c0.5,0.5,1,1,1.5,1.5c0.6,0.6,1.3,0.7,2.2,0.7c2.1-0.2,4.2-0.5,6.3-0.3
		c7.5,1,11.4,10.3,7.1,16.6c-1.5,2.2-3.5,3.6-5.8,4.7c-2,0.9-2.9,2.3-2.6,4.5c0.2,1.5,0.3,1.9,1.7,2.5c4,1.6,7.9,3.2,11.9,4.8
		c0.2,0.1,0.5,0.1,0.8,0.2c0.4-2.1,0.7-4.1,1.1-6.2h-1.3c-3.3,0-6.5,0-9.8,0c-0.4,0-0.9,0.2-0.9-0.5c0-1,0-2,0-3.1h12.1
		c1-10.1-4.6-27-10.7-32.6c-3,2.5-6,5-9,7.5c-0.8-0.9-1.5-1.8-2.3-2.7c3-2.6,6-5.1,8.8-7.5C107.9,15.2,106.8,14,105.7,12.8 M100,8.6
		c-0.1,0.2-0.2,0.3-0.3,0.5c-3.7,5-7.4,9.9-11,14.9c-0.7,0.9-0.6,1.4,0.2,2.3c2.8,2.9,5.7,5.7,8.5,8.6c0.6,0.6,1.2,0.9,2.1,0.8
		c2.2-0.1,3.9,1.1,4.7,3c0.8,1.9,0.5,4-1.2,5.4c-1.5,1.2-2.1,2.6-2,4.5c0,0.2,0,0.3-0.1,0.5c-0.4,3.6-0.8,7.3-1.1,10.9
		c-0.1,1.6,0,1.7,1.4,2.3c4.6,2.1,9.3,4.3,13.9,6.4c0.9,0.4,1.9,0.9,2.9,1.4c0.6-1.7,1.2-3.2,1.8-4.9c-0.5-0.2-0.9-0.4-1.3-0.5
		c-4-1.6-8-3.2-12-4.8c-2.1-0.8-3.3-2.3-3.6-4.6c-0.1-0.9,0-1.7,0-2.6c0-2.4,1-4.2,3.1-5.4c1.3-0.8,2.7-1.5,4-2.4
		c2.4-1.7,3.4-4.1,3-7c-0.4-2.9-2.1-4.9-5-5.9c-1.7-0.6-3.4-0.3-5.1,0c-1.8,0.3-3.5,0.5-5-0.6c-0.9-0.7-1.7-1.5-2.5-2.4
		c-2.1-2.2-2.3-4.9-0.5-7.4c1.2-1.6,2.4-3.3,3.6-4.9c1.5-2,2.9-3.9,4.4-6C101.9,10,101,9.3,100,8.6 M86.2,21.3c-1.1-1-2.1-2-3.2-3
		c-1-1-1.6-2.1-1.7-3.6c-0.1-2.1,0.8-3.7,2.5-4.9c1.4-1,2.8-2,4.3-3.1C66.2-1,41.4,9.1,31.5,31.8c-9.4,21.6-0.2,47.9,20.5,58.8
		c21.4,11.2,45.7,3.4,57.4-13.1c-2.2,0.7-4.1,0.3-5.7-1.3c-1.6-1.6-3.2-3.1-4.7-4.7c-1.7-1.8-2.1-3.9-1.1-6.3
		c0.1-0.2,0.1-0.7-0.1-0.8c-1.5-1.3-1.9-3-1.7-4.9c0.4-4.2,0.9-8.3,1.2-12.5c0.2-2.2,0.9-4,2.8-5.3c0.6-0.4,1-0.9,0.7-1.7
		c-0.3-0.8-0.9-0.9-1.7-0.9c-1.7,0.1-3-0.5-4.2-1.7c-2.9-2.9-5.8-5.8-8.7-8.8c-0.6-0.7-1.2-1.6-1.5-2.4C84.3,24.4,85,22.9,86.2,21.3
		 M24.3,46.6c0.3-1.8,0.5-3.6,0.8-5.4c2-11.1,7.2-20.4,15.4-27.9C47.1,7.2,54.9,3.2,63.7,1.5c11.2-2.2,22-0.7,32.1,4.7
		c0.9,0.5,1.4,0.5,2-0.4c1-1.5,1.8-1.6,3.3-0.6c9.3,6,16.2,14.1,20.5,24.4c2.2,5.2,3.4,10.5,3.9,16.1c0.8,9.3-0.8,18.2-4.7,26.7
		c-0.9,2-1.5,2.3-3.5,1.3c-0.3-0.1-0.5-0.2-0.7-0.3c-1.7,2.5-3.2,5-5,7.3c-6.3,8.2-14.5,13.8-24.3,16.8c-6.6,2-13.4,2.6-20.2,1.7
		c-13.4-1.8-24.3-8.2-32.6-18.9c-5.5-7-8.7-15.1-9.8-24c-0.1-0.9-0.3-1.8-0.4-2.8V46.6z"/>
	<path class="st0" d="M92.4,50c0-10.7-8.6-19.4-19.1-19.4C62.7,30.6,54,39.4,54.1,50c0.1,10.7,8.7,19.4,19.2,19.4
		C83.8,69.4,92.4,60.7,92.4,50 M95.9,50.1c0,12.6-10.2,23-22.7,22.9c-12.5-0.1-22.7-10.1-22.7-23C50.5,37.3,60.8,27,73.3,27
		C85.8,27.1,96,37.4,95.9,50.1"/>
	<path class="st0" d="M76.5,76.3c0.2,1.2,0.3,2.2,0.4,3.3c-7.8,1.5-19.2-1.4-26.6-10.5c-8.3-10.2-9.1-24.4-1.9-35.6
		c6.6-10.2,18.4-14.8,28.4-13.2c-0.1,1.1-0.3,2.2-0.4,3.4c-9.4-0.8-17.3,2.2-23.4,9.5c-4.4,5.3-6.3,11.5-5.9,18.4
		C47.9,65.6,60.2,78,76.5,76.3"/>
	<path class="st0" d="M88.3,76.2c-0.7-1.3-1.3-2.2-1.7-3.1c2.2-1.8,4.3-3.6,6.5-5.4c0.7,0.6,1.6,1.4,2.6,2.3
		C93.2,72.2,90.8,74.1,88.3,76.2"/>
	<path class="st0" d="M73.3,44.8c-2.9,0-5.2,2.3-5.2,5.2c0,2.9,2.3,5.2,5.2,5.2c2.9,0,5.2-2.3,5.2-5.2
		C78.4,47.1,76.2,44.8,73.3,44.8 M81.9,50c0,4.9-3.9,8.8-8.7,8.8c-4.8,0-8.7-3.9-8.7-8.8c0-4.8,3.9-8.8,8.7-8.8
		C78.1,41.2,81.9,45.2,81.9,50"/>
</g>
</svg>
