<?xml version="1.0" encoding="utf-8"?>
<!-- Generator: Adobe Illustrator 25.2.1, SVG Export Plug-In . SVG Version: 6.00 Build 0)  -->
<svg version="1.1" id="Ebene_1" xmlns="http://www.w3.org/2000/svg" xmlns:xlink="http://www.w3.org/1999/xlink" x="0px" y="0px"
	 viewBox="0 0 150 100" style="enable-background:new 0 0 150 100;" xml:space="preserve">
<style type="text/css">
	.st0{clip-path:url(#SVGID_1_);fill:#FFFFFF;}
</style>
<g>
	<defs>
		<rect id="SVGID_3_" x="21.4" y="3.6" width="107.1" height="92.9"/>
	</defs>
	<clipPath id="SVGID_1_">
		<use xlink:href="#SVGID_3_"  style="overflow:visible;"/>
	</clipPath>
	<path class="st0" d="M128.1,38.6c0-3.4-1.8-5.3-5.2-5.3c-1.3,0-2.7,0-4,0c-0.6,0-1.2,0-1.8,0H117l-0.4-0.8l0.1-0.1
		c0.4-0.4,0.9-0.9,1.3-1.3c0.9-0.9,1.9-1.8,2.9-2.8c2.4-2.5,2.4-5,0-7.5c-3-3.1-6.1-6.3-9-9.2c-1.1-1.1-2.4-1.8-3.6-1.8c0,0,0,0,0,0
		c-1.2,0-2.4,0.6-3.5,1.7c-0.9,1-1.8,2-2.7,3c-0.4,0.5-0.8,0.9-1.2,1.4l-0.1,0.1l-1-0.6V9.7c0-3.9-1.7-5.6-5.4-5.7
		c-3.8,0-7.8,0-11.9,0c-4,0-5.6,1.7-5.7,5.8c0,1.2,0,2.5,0,3.7l0,2.2l-0.4-0.3c-1.6-1.1-2.8-2.2-3.9-3.4L72.2,12
		c-1.5-1.5-2.8-2.3-4.1-2.3c-1.3,0-2.6,0.7-4,2.2c-1.2,1.3-2.4,2.5-3.6,3.8c-1.5,1.6-3,3.1-4.5,4.7c-2.9,3-2.9,5.3-0.1,8.2
		c0.8,0.9,1.7,1.8,2.6,2.8l1.9,2l-2.8,0c-1.4,0-2.7,0-3.9,0c-3.5,0-5.3,1.8-5.3,5.4c0,4.2,0,8.5,0,13.1c0,3.4,1.8,5.2,5,5.2
		c1.3,0,2.7,0,4,0c0.6,0,1.2,0,1.8,0h0.2l0.3,0.8l-1.3,1.3c-0.9,1-1.8,1.9-2.8,2.9c-2.5,2.6-2.5,5.1,0,7.6c2.9,3,5.8,5.9,8.7,9
		c2.5,2.6,5,2.6,7.6,0.1c0.9-0.9,1.8-1.8,2.8-2.8l1.9-1.9v0.6c0,0.8,0,1.6,0,2.3c0,1.5,0,2.8,0,4.1c0.1,3.5,1.8,5.3,5.2,5.3
		c4.2,0,8.5,0,12.7,0c3.2,0,5-1.8,5.1-5.2c0-1.4,0-2.8,0-4.2c0-0.6,0-1.3,0-1.9v-0.2l0.9-0.2l0.1,0.1c0.4,0.4,0.8,0.8,1.2,1.3
		c0.9,0.9,1.7,1.9,2.6,2.8c1.2,1.3,2.5,1.9,3.8,1.9c0,0,0,0,0,0c1.3,0,2.5-0.7,3.8-1.9c1.6-1.7,3.3-3.4,4.9-5
		c1.2-1.3,2.4-2.5,3.7-3.8c2.6-2.6,2.6-5.1,0.1-7.8c-0.9-1-1.8-1.9-2.7-3l-1.9-2.1l2.8,0c1.4,0,2.7,0,3.9,0c3.4,0,5.2-1.8,5.2-5.3
		C128.1,47.6,128.1,43.3,128.1,38.6z M123.7,52.6h-0.2c-0.6,0-1.1,0-1.7,0c-1.3,0-2.4,0-3.6,0c-2.8-0.1-4.5,0.8-5.4,2.9
		c-0.9,2.2-0.4,4.2,1.7,6.1c0.9,0.8,1.9,1.6,2.8,2.4c0.4,0.3,0.7,0.6,1.1,0.9l0.2,0.2l-10.6,11.2l-0.2-0.2c-0.4-0.5-0.8-0.9-1.2-1.4
		c-0.9-1-1.8-2.1-2.7-3.1c-1.6-1.7-3.4-2.2-5.4-1.4c-2,0.8-3,2.5-2.9,4.9c0,1.4,0,2.7,0,4.2c0,0.6,0,1.3,0,2v0.3H81v-0.3
		c0-0.6,0-1.2,0-1.8c0-1.3,0-2.7,0-4c0.1-2.6-0.9-4.4-3-5.3c-2-0.9-3.9-0.4-5.5,1.5c-0.9,1-1.8,2-2.6,3c-0.4,0.4-0.8,0.9-1.1,1.3
		l-0.2,0.2l-10.8-11l1.6-1.4c1-0.9,2-1.8,3-2.7c1.7-1.6,2.2-3.5,1.3-5.7c-0.8-2-2.3-3-4.8-2.9c-1.3,0-2.7,0-4.1,0l-2.1,0V37.7l2.1,0
		c1.3,0,2.6,0,3.9,0c2.6,0,4.1-0.9,5-3c0.9-2.1,0.4-4-1.3-5.7c-1-1-1.9-2-2.8-3c-0.4-0.4-0.7-0.8-1.1-1.2l-0.2-0.2l10.2-10.9
		l0.2,0.2c0.5,0.5,0.9,1,1.3,1.5c1,1.1,1.9,2.2,2.9,3.3c1.4,1.5,3.1,1.9,5.1,1.1c1.9-0.8,2.9-2.3,2.9-4.5c0-1.5,0-2.9,0-4.5
		c0-0.7,0-1.4,0-2.1V8.7h14.5v0.3c0,0.7,0,1.3,0,2c0,1.5,0,2.9,0,4.3c0,2.3,0.9,3.9,2.8,4.7c2,0.9,3.8,0.5,5.3-1.1
		c1-1.1,1.9-2.2,2.8-3.3c0.4-0.5,0.7-0.9,1.1-1.4l0.2-0.2l10.9,10.8l-0.2,0.2c-0.5,0.5-1,0.9-1.4,1.4c-1,1-2.1,2-3,3
		c-1.6,1.6-2,3.4-1.2,5.4c0.8,2,2.3,3,4.5,3.1c1.4,0,2.7,0,4.2,0c0.7,0,1.3,0,2,0h0.2V52.6z"/>
	<path class="st0" d="M59.2,89.7c0.4,0.4,0.7,0.6,1,0.9c2,2,4,2,6,0c0.8-0.8,1.8-1.8,2.8-2.9c0.6-0.7,1.4-2,0.1-3.3
		c-1.3-1.3-2.5-0.4-3.2,0.2c-0.6,0.6-1.1,1.2-1.7,1.8c-0.3,0.3-0.5,0.6-0.8,0.9l-0.2,0.2l-0.2-0.2c-0.5-0.4-1-1-1.5-1.5
		c-1.6-1.7-2.9-3.1-5.4-2.1c-2.4,1-2.4,3-2.4,5.2c0,0.7,0,1.4-0.1,2.1l0,0.2h-8.3l0-0.2c0-0.6,0-1.2,0-1.9c0-2.3,0.1-4.4-2.5-5.4
		c-2.4-0.9-3.7,0.5-5.1,1.9c-0.5,0.5-1,1-1.5,1.4l-0.2,0.1L30,81.2l0.2-0.2c0.3-0.3,0.6-0.5,0.9-0.8c0.7-0.6,1.3-1.2,1.9-1.8
		c1.1-1.2,1.3-2.7,0.6-4.3c-0.7-1.5-1.8-2.3-3.3-2.3c-0.3,0-0.6,0-0.9,0c-0.6,0-1.3,0-1.9-0.1c-0.5-0.1-1.2-0.7-1.2-1.2
		c-0.1-1.7-0.1-3.5-0.1-5.3c0-0.6,0-1.2,0-1.8v-0.2l0.2,0c0.7-0.1,1.3-0.1,2-0.1c2.3,0,4.2,0,5.3-2.5c1-2.5-0.4-3.9-1.8-5.4
		c-0.5-0.5-1-1-1.4-1.6l-0.1-0.2l6.2-6.4l0.2,0.2c0.3,0.3,0.5,0.7,0.7,1c0.5,0.7,1.1,1.5,1.7,2.1c1,0.9,2.4,1.2,3.7,0.7
		c1.3-0.5,2.2-1.5,2.4-2.9c0.1-0.8-0.3-2-0.8-2.5c-0.3-0.3-1.1-0.2-1.8-0.2c-0.2,0-0.4,0-0.6,0c-0.1,0-0.3,0.1-0.5,0.3
		c-0.1,0.1-0.3,0.2-0.5,0.3l-0.2,0.1l-0.1-0.2c-0.2-0.2-0.4-0.5-0.6-0.7c-0.4-0.5-0.8-1-1.2-1.4c-1.9-1.9-4-1.8-5.9,0
		c-2.1,2.1-4.1,4.2-6.2,6.3c-1.7,1.8-1.7,4,0,5.9c0.3,0.3,0.6,0.7,1,1.1l0.9,1l-0.5,0c-0.3,0-0.5,0-0.8,0.1c-0.4,0-0.8,0.1-1.2,0.1
		c-3,0.1-4.4,1.5-4.4,4.6c0,2.7,0,5.5,0,8.2c0,3.3,1.3,4.6,4.4,4.7c0.4,0,0.8,0,1.2,0.1c0.2,0,0.5,0,0.8,0.1l0.5,0l-1,1.1
		c-0.3,0.4-0.6,0.7-0.9,1c-2,2.1-2,4.2,0.1,6.3c2.1,2.2,4,4.1,5.8,5.9c2.1,2.1,4,2.1,6.1,0.1c0.3-0.3,0.6-0.5,1-0.9l1-0.9l0.1,1.4
		c0,0.5,0.1,0.9,0.1,1.3c0.1,2.9,1.5,4.3,4.2,4.4c3.3,0,6,0,8.5,0c2.6,0,4-1.5,4.1-4.1c0-0.5,0-1,0-1.6c0-0.3,0-0.7,0-1.1v-0.6
		L59.2,89.7z"/>
	<path class="st0" d="M44.1,55.4c-0.1,0-0.2,0-0.4,0c-0.6,0-1.3,0.3-2,0.8c-4.7,3.5-6.7,9.7-4.9,15.5c1.7,5.5,6.8,9.5,12.7,9.8
		c0.6-0.1,1.1-0.3,1.7-0.4c1.3-0.3,2.6-0.6,3.9-1.1c0.9-0.3,1.5-0.8,1.7-1.4c0.2-0.5,0.2-1.1,0-1.7c-0.2-0.6-0.7-1-1.2-1.1
		c-0.6-0.2-1.3-0.1-2.2,0.3c-4.6,1.9-9.4,0.3-11.7-4c-2.3-4.2-1.2-9.2,2.7-12.3c2-1.6,1.6-2.7,1.1-3.4C45,55.8,44.6,55.5,44.1,55.4z
		"/>
	<path class="st0" d="M88.4,25.8c0,0-0.1,0-0.1,0c-5,0-9.7,2-13.2,5.5c-3.6,3.7-5.6,8.6-5.7,13.8c0,10.7,8.4,19.3,18.7,19.4
		c0,0,0,0,0.1,0c10.5,0,18.7-8.4,18.8-19.2c0.1-5.2-1.9-10.1-5.5-13.8C98,27.8,93.3,25.8,88.4,25.8z M98.4,55.9
		c-2.7,2.8-6.4,4.3-10.2,4.3c0,0-0.1,0-0.1,0c-8,0-14.5-6.8-14.5-15c0-4.1,1.6-7.9,4.4-10.8c2.7-2.7,6.3-4.3,10.1-4.3c0,0,0,0,0.1,0
		c8,0,14.6,6.8,14.5,15.1C102.7,49.2,101.2,53,98.4,55.9z"/>
</g>
</svg>
