<?xml version="1.0" encoding="utf-8"?>
<!-- Generator: Adobe Illustrator 25.2.1, SVG Export Plug-In . SVG Version: 6.00 Build 0)  -->
<svg version="1.1" id="Ebene_1" xmlns="http://www.w3.org/2000/svg" xmlns:xlink="http://www.w3.org/1999/xlink" x="0px" y="0px"
	 viewBox="0 0 150 100" style="enable-background:new 0 0 150 100;" xml:space="preserve">
<style type="text/css">
	.st0{clip-path:url(#SVGID_1_);fill:#FFFFFF;}
</style>
<g>
	<defs>
		<rect id="SVGID_3_" x="0" y="12.4" width="150" height="75.2"/>
	</defs>
	<clipPath id="SVGID_1_">
		<use xlink:href="#SVGID_3_"  style="overflow:visible;"/>
	</clipPath>
	<path class="st0" d="M129.3,62.6c4.9-5,9.8-10,14.8-15.1c-3.4-3.2-6.9-6.5-10.5-9.7c-0.5-0.5-1.6-0.4-2.4-0.4
		c-20.4,0-40.7-0.1-61.1,0c-1.9,0-2.9-0.7-3.9-2.4c-6.7-12.2-17-18.1-30.8-17.9c-0.5,0-0.9,0.1-1.4,0.1c-1.4,0-2.3-0.6-2.4-2.1
		c-0.1-1.5,0.7-2.4,2.2-2.5c6.4-0.6,12.6,0.4,18.4,3c7.4,3.3,13.1,8.5,17.2,15.5c0.7,1.2,1.4,1.6,2.8,1.6c20.3-0.1,40.6-0.1,60.9,0
		c1.2,0,2.6,0.6,3.5,1.4c4,3.6,7.9,7.3,11.8,11c2.1,1.9,2.1,3,0.1,5c-5.5,5.6-11.1,11.2-16.6,16.8c-1.6,1.6-2.5,1.7-4.3,0.4
		c-0.7-0.5-1.5-1-2.1-1.6c-3.6-3.7-7.9-4.9-13-4.3c-2.4,0.3-4.9-0.1-7.4,0.1c-0.9,0.1-2,0.6-2.7,1.2c-1.6,1.5-3.1,3.2-4.5,4.9
		c-1,1.2-2.2,1.6-3.7,1.6c-7.7,0-15.4,0-23.1-0.1c-1.4,0-2.3,0.4-3.1,1.6c-8.2,12.8-23.7,19.3-38.5,16.2
		C15.1,83.8,3.5,71.9,0.7,57.1c-3-15.9,4.2-31.8,18.1-39.8c0.5-0.3,1-0.6,1.6-0.9c1.7-0.8,3.2-0.6,3.7,0.8c0.6,1.6-0.2,2.5-1.5,3.4
		c-2.5,1.6-5.2,3.1-7.3,5.2c-9.8,9.5-13,21.1-8.9,34c4.1,13,13.4,20.9,27,22.6c13.9,1.7,24.6-4,32.1-15.9c1-1.6,2.1-2.2,4-2.2
		c7.9,0.1,15.8,0.1,23.7,0c0.9,0,1.9-0.6,2.7-1.2c1-0.8,1.9-1.7,2.6-2.8c2-3.2,4.9-4,8.5-3.7c4.2,0.3,8.4,0,12.5,0.1
		c1.3,0,2.7,0.6,3.8,1.3C125.2,59.5,127.2,61.1,129.3,62.6"/>
	<path class="st0" d="M31.6,49.9c0-4.2-3.8-8-7.9-7.9c-4.2,0-7.8,3.7-7.8,8c0,4.3,3.7,7.9,7.9,7.9C28,57.9,31.6,54.2,31.6,49.9
		 M23.7,62.5c-7.1,0-12.4-5.5-12.3-12.8c0-6.9,5.6-12.3,12.6-12.2c6.9,0.1,12.4,5.7,12.3,12.5C36.2,57,30.6,62.5,23.7,62.5"/>
	<path class="st0" d="M98.7,43.1c9.3,0,18.6,0,27.9,0c1.7,0,3,0.3,3.1,2.2c0.1,1.6-1,2.5-3.2,2.5c-18.6,0-37.1,0-55.7-0.1
		c-0.9,0-2.2-0.4-2.7-1.1c-1.2-1.5,0.1-3.4,2.2-3.5c6.2,0,12.3,0,18.5,0C92.1,43.1,95.4,43.1,98.7,43.1"/>
</g>
</svg>
