<?xml version="1.0" encoding="utf-8"?>
<!-- Generator: Adobe Illustrator 25.2.1, SVG Export Plug-In . SVG Version: 6.00 Build 0)  -->
<svg version="1.1" id="Ebene_1" xmlns="http://www.w3.org/2000/svg" xmlns:xlink="http://www.w3.org/1999/xlink" x="0px" y="0px"
	 viewBox="0 0 1100 130" style="enable-background:new 0 0 1100 130;" xml:space="preserve">
<style type="text/css">
	.st0{fill:#F35135;}
	.st1{fill:#F8F7FB;}
</style>
<g>
	<path class="st0" d="M101.3,129.2h40.8L107,41.1l-13.4,0.2c-7.3,0-13.9,4.4-16.9,10.9l8.4,26H66.8l-10.2,26.7h35.8L101.3,129.2z"/>
	<path class="st0" d="M39.2,31.8L0,129.6h18.7c14.4,0,19.5-3.8,25-18.2l23.4-61.5c4-11,14.7-18.3,26.3-18.3l822.4-15.8L85.8,0
		C65.2,0,46.9,12.5,39.2,31.8z"/>
	<polygon class="st0" points="161.6,129.1 198.6,129.1 198.6,39.7 161.6,40.3 	"/>
	<path class="st1" d="M235.7,48.9h31.3c22.9,0,29.9,8.8,29.9,20.4c0,19.3-9.1,33.7-32.3,33.7h-25.4l-5.6,25.7h-15L235.7,48.9z
		 M264.2,89.3c10.8,0,17-5,17-17.2c0-6.2-4.5-9.6-16-9.6h-17.3L242,89.3H264.2z"/>
	<path class="st1" d="M313.7,48.9h56.6l-3,14.2h-41.2l-4,17.8h40.2l-2.9,13.9h-40.1l-4.4,20.2h41.6l-2.8,13.7h-57L313.7,48.9z"/>
	<path class="st1" d="M406.7,100.9h-17.9l-6,27.8h-15l17.1-79.8h29.8c24.1,0,31,9,31,19.9c0,15.9-6.4,28.5-23.6,31.4l10,28.4h-15.6
		L406.7,100.9z M413.5,87.4c10.5,0,16.2-4.5,16.2-15.3c0-6.8-5.4-9.6-16.4-9.6h-16.4l-5.4,24.9H413.5z"/>
	<path class="st1" d="M464.1,48.9h54.1l-3,14.2h-38.7l-4.2,19.3h37.7l-2.9,14h-37.7l-6.9,32.3h-15.3L464.1,48.9z"/>
	<path class="st1" d="M515.6,97.5c0-4,0.4-8.3,1.4-13.1c6.2-29.5,25.2-36.7,44.5-36.7c23.7,0,38,11,38,32.2c0,4-0.4,8.3-1.4,12.9
		c-6.4,29.7-25.2,37.3-44.3,37.3C529.9,130,515.6,118.8,515.6,97.5z M582.6,91.6c0.8-3.4,1.2-6.6,1.2-9.7c0-11.8-6.5-19.9-23-19.9
		c-15.7,0-24.9,7.8-28.4,24.4c-0.8,3.3-1.1,6.6-1.1,9.7c0,11.8,6.4,20,22.8,20C569.7,116.1,578.9,108.5,582.6,91.6z"/>
	<path class="st1" d="M641.1,100.9h-17.9l-6,27.8h-15l17.1-79.8h29.8c24.1,0,31,9,31,19.9c0,15.9-6.4,28.5-23.6,31.4l10,28.4h-15.6
		L641.1,100.9z M648,87.4c10.5,0,16.2-4.5,16.2-15.3c0-6.8-5.4-9.6-16.4-9.6h-16.4L626,87.4H648z"/>
	<path class="st1" d="M698.6,48.9h20l9.9,56.4l34-56.4H783l-17,79.8h-14.9L763.3,72l-34.7,56.7h-10.9l-10.3-56.5l-12,56.5h-13.7
		L698.6,48.9z"/>
	<path class="st1" d="M823.8,48.4h15l13.4,80.3H837l-2.3-14.2h-34.1l-8.2,14.2h-16.3L823.8,48.4z M832.7,101.1L827.4,68l-19.3,33.2
		H832.7z"/>
	<path class="st1" d="M879.9,48.9h16.5l25.4,54.6l11.7-54.6h14.7l-17,79.8h-14.1l-27.4-57.8l-12.3,57.8H863L879.9,48.9z"/>
	<path class="st1" d="M950.7,98.7c0-4.3,0.4-8.9,1.5-13.9c6.1-29,23.8-37.1,43.6-37.1c18.4,0,26.9,6.1,32,12.2L1015.1,70
		c-4-4.8-10.2-8.1-19.6-8.1c-14.5,0-24.3,7.2-28,24.8c-0.8,3.6-1.1,6.9-1.1,9.9c0,11.7,6.3,19.3,21.9,19.3c8.5,0,14.3-2.5,19.5-6.7
		l9,11.1c-7.5,6.5-16.3,9.6-29.9,9.6C961.4,129.9,950.7,117.6,950.7,98.7z"/>
	<path class="st1" d="M1043.4,48.9h56.6l-3,14.2h-41.2l-4,17.8h40.2l-2.9,13.9H1049l-4.4,20.2h41.6l-2.8,13.7h-57L1043.4,48.9z"/>
</g>
</svg>
