<?xml version="1.0" standalone="no"?>
<!DOCTYPE svg PUBLIC "-//W3C//DTD SVG 20010904//EN"
 "http://www.w3.org/TR/2001/REC-SVG-20010904/DTD/svg10.dtd">
<svg version="1.0" xmlns="http://www.w3.org/2000/svg"
 width="501.000000pt" height="501.000000pt" viewBox="0 0 501.000000 501.000000"
 preserveAspectRatio="xMidYMid meet">
<metadata>
Created by potrace 1.14, written by Peter Selinger 2001-2017
</metadata>
<g transform="translate(0.000000,501.000000) scale(0.100000,-0.100000)"
fill="#000000" stroke="none">
<path d="M2338 5005 c-2 -2 -34 -5 -73 -9 -228 -19 -533 -96 -745 -188 -306
-134 -550 -301 -787 -538 -189 -189 -349 -411 -466 -645 -87 -175 -172 -411
-201 -555 -35 -181 -40 -211 -55 -350 -8 -80 -7 -399 3 -465 3 -22 8 -60 11
-85 22 -171 87 -418 155 -590 42 -106 160 -342 186 -371 8 -8 14 -18 14 -22 0
-14 142 -212 210 -292 250 -296 590 -546 940 -693 184 -77 458 -154 599 -168
30 -3 57 -7 60 -9 3 -1 44 -6 91 -11 149 -13 424 -7 540 11 14 2 45 7 70 10
25 3 52 8 60 10 8 2 31 7 50 10 60 10 221 53 312 84 454 154 872 454 1174 841
218 281 394 658 460 985 2 11 6 31 9 45 32 152 48 314 48 500 0 63 -2 153 -6
200 -5 74 -10 113 -33 255 -35 222 -162 574 -273 755 -11 19 -24 42 -28 50 -9
19 -144 223 -152 230 -3 3 -19 23 -35 45 -83 114 -249 284 -386 395 -30 25
-57 48 -60 51 -13 16 -255 172 -335 216 -132 71 -376 174 -440 183 -3 1 -20 7
-40 16 -19 8 -36 14 -37 13 -2 -1 -21 4 -43 9 -22 6 -51 13 -65 16 -14 2 -45
9 -70 14 -25 6 -65 13 -90 17 -25 3 -56 8 -70 10 -72 13 -142 17 -312 20 -103
1 -189 1 -190 0z"/>
</g>
</svg>
