<?xml version="1.0" encoding="utf-8"?>
<!-- Generator: Adobe Illustrator 25.2.1, SVG Export Plug-In . SVG Version: 6.00 Build 0)  -->
<svg version="1.1" id="Ebene_1" xmlns="http://www.w3.org/2000/svg" xmlns:xlink="http://www.w3.org/1999/xlink" x="0px" y="0px"
	 viewBox="0 0 150 100" style="enable-background:new 0 0 150 100;" xml:space="preserve">
<style type="text/css">
	.st0{clip-path:url(#SVGID_2_);fill:#FFFFFF;}
</style>
<g>
	<g>
		<defs>
			<rect id="SVGID_1_" x="16.9" width="116.3" height="100"/>
		</defs>
		<clipPath id="SVGID_2_">
			<use xlink:href="#SVGID_1_"  style="overflow:visible;"/>
		</clipPath>
		<path class="st0" d="M126.2,43.7V7h-4v5.4H104c-13.2,0-26.3,0-39.5,0c-3.3,0-6.2,0.3-8.9,0.9c-9.5,2.2-17.4,7.2-23.4,14.9
			c-5.1,6.6-7.9,14.2-8.3,22.6c-0.2,3.7,0.1,7.4,1,11c1.9,8.2,6,15.2,12.3,20.8c0.1,0.1,0.2,0.2,0.4,0.4l0.1,0.1l5.7,5.9h-14v4h69.5
			v-3.9H84.4l6.4-6.1c11.8-11.2,15.8-24.5,12.4-40.4l-0.9-4.2h20v5.4L126.2,43.7L126.2,43.7z M122.2,30.3c0,2.5-1.5,4.1-4,4.1h-14.1
			c-13.2,0-26.3,0-39.5,0l0,0c-3.8,0-7,0.9-9.9,2.6c-4.9,3.1-7.9,7.4-8.7,12.7c-1.1,7.5,1.4,13.4,7.6,18.1c2.4,1.8,5.2,2.9,8.5,3.2
			c9.5,1,18.1-5.3,20.1-14.7c0.9-4.2,0.2-8.2-1.9-12.2l-3.1-5.8h13.6c1.3,0,2.6,0,4,0c1.7,0,3.2,1,3.8,2.7c1.6,4.8,2.2,9.5,1.9,14.1
			c-1.1,11.7-6.5,21-16,27.7c-4.4,3.1-9.5,5.1-15,5.9c-1.9,0.3-3.7,0.4-5.5,0.4c-4.9,0-9.6-1-14.1-2.9C41,82.3,34.5,75.9,30.7,67
			c-2.2-5.1-3.1-10.5-2.9-16.1c0.8-16,11.7-29.4,27.2-33.4c2.9-0.8,6-1.1,9.3-1.1c17.9,0,35.9,0,53.9,0c1.2,0,2.2,0.4,2.9,1.1
			c0.5,0.5,1.1,1.5,1.1,2.9c0,2.5,0,4.9,0,7.4L122.2,30.3z M75.1,62.7L74.7,63l-0.6,0.9l-0.3-0.3l-2.4,1.5c-2.1,1.4-4.8,2.1-7.4,2.1
			c-2.7,0-5.3-0.7-7.4-2.1l-2.3-1.5L54,63.9L53.6,63l-0.5-0.3l0.2-0.2l-1.5-2.4c-2.8-4.4-2.8-10.5,0-14.9l1.5-2.4L53,42.6l0.8-0.5
			l0.3-0.5l0.2,0.2l2.5-1.5c4.3-2.7,10.4-2.7,14.7,0l2.5,1.6l0,0l0.1,0.1l1.1,0.7L74.8,43l1.5,2.2c2.3,3.4,3.3,9.5,0.1,14.8L75,62.6
			L75.1,62.7z"/>
	</g>
</g>
</svg>
